<svg width="173" height="120" viewBox="0 0 173 120" fill="none" xmlns="http://www.w3.org/2000/svg">
<path d="M106.485 28.0414C110.214 26.21 112.062 26.4503 112.103 28.3067C112.153 30.7181 111.797 33.9249 111.54 36.2452C110.156 48.8567 107.844 59.1619 107.67 72.1106C113.76 56.3428 118.865 45.3838 125.444 31.8865C127.533 27.5857 128.867 28.3895 130.582 27.6271C137.261 24.6522 137.51 26.4752 136.64 30.1132C133.4 43.5873 125.105 86.0114 123.837 92.5439C123.472 94.4339 121.417 93.6327 120.887 92.8936C118.509 89.6038 115.824 89.5524 116.122 87.3647C117.614 76.4734 122.983 49.1476 124.384 42.7088C117.249 57.3363 109.849 75.6225 106.045 85.9908C105.242 88.1925 103.775 88.031 102.863 86.42C101.579 84.1571 99.0847 83.0017 98.6702 80.3276C97.3693 71.8257 100.162 55.6202 100.551 45.368C96.665 56.5674 90.1434 78.3107 87.2844 88.1344C86.1078 92.1991 82.1798 91.536 83.2239 87.5743C87.566 71.088 96.9218 41.9298 100.966 31.4472C101.919 28.9777 104.413 29.0605 106.485 28.0414Z" fill="#C6C6C6"/>
<path d="M82.8017 26.0195C81.5422 25.713 77.8878 27.6852 75.642 28.0746C74.9294 28.1989 74.2498 28.9529 74.0095 29.4917C70.413 37.7535 67.1896 45.6291 64.397 52.8036C60.8254 53.4135 56.6491 54.2165 51.9754 55.2663C55.3231 46.6789 58.7042 38.2091 62.0022 30.0633C63.6263 26.0525 59.3505 25.6714 57.6931 29.7319C55.5385 35.0106 51.5029 44.9007 47.0364 56.4282C43.7548 57.2328 40.2745 58.1525 36.6366 59.2034C33.9931 59.9666 33.8855 60.6709 35.0291 62.2562C35.6588 63.1389 36.9599 63.0499 37.5564 63.6789C39.0978 65.309 40.0342 67.2588 42.7935 67.5538C40.3323 74.1375 37.8712 80.9268 35.6422 87.4641C34.2417 91.5676 38.2276 92.407 39.7607 88.0647C42.2301 81.065 44.8321 73.9807 47.5087 66.9173C49.7378 66.3993 55.1323 65.2374 60.1126 64.1569C56.1599 74.9908 53.5577 83.2186 52.5718 87.2236C52.3895 87.9942 52.696 88.4218 52.8618 88.7359C54.1959 90.6774 55.4638 90.757 57.1791 93.1576C57.6433 93.8122 59.2012 94.1652 59.7314 92.5535C63.3941 81.4899 67.1646 71.1093 70.6781 61.8033C72.1364 61.4843 74.7633 60.8504 76.3709 58.4514C79.2297 54.1936 80.0501 55.0572 80.7381 53.7628C81.5999 52.1378 81.028 50.6122 77.9786 50.9891C77.9786 50.9891 76.8268 51.0711 74.6971 51.3139C78.078 42.6089 81.0363 35.2254 83.166 29.5989C83.8955 27.6935 83.9867 26.3013 82.8017 26.0195Z" fill="#C6C6C6"/>
<path d="M77.8133 82.4801C78.6006 84.4697 81.0617 83.8672 80.1253 81.4659C79.1722 79.0195 76.8023 71.6552 76.1807 69.2827C75.3355 66.0858 78.9982 66.96 77.142 69.05C75.5511 70.8473 74.4902 71.5674 71.5485 74.9848C68.7062 78.2837 69.4769 82.5647 72.5181 83.5103C75.9487 84.5775 78.9735 80.7972 80.8462 78.0237C82.6609 75.338 80.9041 73.7627 79.0728 75.3505C77.896 76.3714 76.537 77.9391 75.1614 78.7844C74.0427 79.4647 73.1643 78.7338 74.656 76.6805C76.3879 74.3031 78.3269 72.311 79.7688 70.0644C82.7106 65.486 76.8933 62.8468 74.3907 65.8208C73.0482 67.4061 73.388 68.9624 73.7527 70.2981C74.3411 72.4376 76.5288 79.2675 77.8133 82.4801Z" fill="#C6C6C6"/>
</svg>
