<svg width="28" height="28" viewBox="0 0 28 28" fill="none" xmlns="http://www.w3.org/2000/svg">
<path d="M26.5 20.15V23.9C26.5014 24.2481 26.4301 24.5927 26.2906 24.9117C26.1512 25.2307 25.9466 25.517 25.6901 25.7523C25.4336 25.9877 25.1307 26.1669 24.8009 26.2784C24.4712 26.3899 24.1217 26.4313 23.775 26.4C19.9286 25.9821 16.2338 24.6677 12.9875 22.5625C9.96729 20.6433 7.40668 18.0827 5.48751 15.0625C3.37498 11.8015 2.06031 8.08874 1.65001 4.225C1.61877 3.87933 1.65985 3.53095 1.77063 3.20203C1.88142 2.87311 2.05947 2.57086 2.29347 2.31453C2.52746 2.05819 2.81226 1.85339 3.12975 1.71315C3.44723 1.57292 3.79043 1.50033 4.13751 1.5H7.88751C8.49414 1.49403 9.08225 1.70885 9.54221 2.10441C10.0022 2.49998 10.3026 3.04931 10.3875 3.65C10.5458 4.85008 10.8393 6.02841 11.2625 7.1625C11.4307 7.6099 11.4671 8.09614 11.3674 8.5636C11.2677 9.03106 11.0361 9.46014 10.7 9.8L9.11251 11.3875C10.892 14.5169 13.4831 17.1081 16.6125 18.8875L18.2 17.3C18.5399 16.9639 18.969 16.7323 19.4364 16.6326C19.9039 16.5329 20.3901 16.5693 20.8375 16.7375C21.9716 17.1607 23.1499 17.4542 24.35 17.6125C24.9572 17.6982 25.5118 18.004 25.9082 18.4719C26.3046 18.9397 26.5152 19.537 26.5 20.15Z" stroke="#6379F4" stroke-width="2" stroke-linecap="round" stroke-linejoin="round"/>
</svg>
