<svg width="174" height="120" viewBox="0 0 174 120" fill="none" xmlns="http://www.w3.org/2000/svg">
<path d="M39.8246 72.266C33.3136 72.266 28.0369 66.9865 28.0369 60.4743C28.0369 53.9617 33.3136 48.6872 39.8246 48.6872C42.1195 48.6872 44.2621 49.3417 46.0721 50.4762L39.8246 60.4743L51.5862 53.683C50.3084 51.647 48.4756 49.8926 46.2595 48.5614C43.4394 46.873 39.5165 45.8281 35.1787 45.8281C28.9911 45.8281 23.5626 48.0767 20.5352 51.4439C18.2939 53.9331 16.9595 57.066 16.9595 60.4741C16.9595 63.8846 18.2939 67.0198 20.5352 69.5107C23.5704 72.8822 28.9181 75.1176 35.0037 75.1176C41.0885 75.1176 46.4345 72.8805 49.4716 69.5107C49.6379 69.3252 49.799 69.1379 49.9513 68.9436L49.4926 67.2246C47.3588 70.2704 43.8245 72.266 39.8246 72.266Z" fill="#C6C6C6"/>
<path d="M78.819 74.4084L73.8826 55.9931C73.0896 53.0172 70.3798 50.83 67.1536 50.83C66.3169 50.83 65.5152 50.9794 64.7712 51.2501L54.1439 55.1145H65.074L66.9418 62.0899C65.13 60.5306 62.7704 59.5818 60.1866 59.5818C55.0559 59.5818 50.9019 63.02 50.9019 67.2611C50.9019 71.5026 55.0559 74.9458 60.1866 74.9458C63.8802 74.9458 67.1466 73.1375 69.1615 70.3595L70.245 74.4084H78.819ZM63.7612 71.5481C61.3945 71.5481 59.4759 69.6313 59.4759 67.2611C59.4759 64.8944 61.3945 62.9758 63.7612 62.9758C66.1278 62.9758 68.0481 64.8944 68.0481 67.2611C68.0481 69.6313 66.1278 71.5481 63.7612 71.5481Z" fill="#C6C6C6"/>
<path d="M98.9464 50.8332C98.2987 50.8332 97.686 50.9764 97.1398 51.2328L90.3164 54.4128C89.9785 52.3815 88.214 50.8332 86.0854 50.8332C85.4412 50.8332 84.8268 50.9764 84.2736 51.2328L75.943 55.1146H81.8002V74.4087H90.3741V57.2611C90.3741 56.0779 91.3317 55.1148 92.5185 55.1148C93.6984 55.1148 94.6629 56.0779 94.6629 57.2611V74.4087H103.233V55.1146C103.233 52.7484 101.313 50.8334 98.9464 50.8334" fill="#C6C6C6"/>
<path d="M152.715 50.8332C152.065 50.8332 151.449 50.9764 150.894 51.2328L144.078 54.4128C143.742 52.3815 141.977 50.8332 139.849 50.8332C139.204 50.8332 138.59 50.9764 138.035 51.2328L129.708 55.1146H135.563V74.4087H144.136V57.2611C144.136 56.0779 145.095 55.1148 146.282 55.1148C147.465 55.1148 148.423 56.0779 148.423 57.2611V74.4087H157V55.1146C157 52.7484 155.078 50.8334 152.715 50.8334" fill="#C6C6C6"/>
<path d="M131.094 62.9758C131.094 69.6821 125.659 75.1174 118.955 75.1174C112.245 75.1174 106.806 69.6821 106.806 62.9758C106.806 56.2711 112.245 50.8332 118.955 50.8332C125.659 50.8332 131.094 56.2713 131.094 62.9758ZM119.457 54.5184C119.075 53.0896 117.607 52.2415 116.178 52.6255C114.752 53.008 113.899 54.4776 114.283 55.9062L118.447 71.4326C118.832 72.8628 120.297 73.71 121.726 73.3319C123.154 72.9451 124.003 71.4764 123.62 70.048L119.457 54.5184Z" fill="#C6C6C6"/>
</svg>
