<svg width="173" height="120" viewBox="0 0 173 120" fill="none" xmlns="http://www.w3.org/2000/svg">
<path d="M84.7755 16.2909H87.4951C100.723 17.0364 110.155 22.0567 117.148 29.0923C124.14 36.128 129.309 45.4074 130 58.6844V61.3148C129.328 74.8041 124.068 83.7069 117.148 90.9507C109.878 97.8314 100.941 103.045 87.4512 103.708H84.7755C71.5489 102.961 62.1154 97.9427 55.1229 90.9067C48.1304 83.871 42.9613 74.5918 42.2706 61.3148V58.6844C42.305 58.6748 42.3219 58.6478 42.3145 58.5967C42.9759 45.3704 48.1731 35.9945 55.1231 29.0485C62.105 22.0701 71.6346 17.0139 84.7755 16.2909ZM76.178 22.56C73.5717 23.2576 71.2344 24.1433 69.1159 25.1904C62.6675 28.3772 57.3498 32.9366 53.6316 38.7808C50.0024 44.4853 46.8602 51.8236 47.3152 61.4461C47.6021 67.5126 48.9872 72.6157 51.1751 76.9656C55.4959 85.5545 62.074 91.883 71.1776 95.7294C75.6794 97.6314 81.2576 98.9656 87.5392 98.6665C93.5644 98.3798 98.7855 97.0261 103.111 94.8525C111.589 90.5921 118.27 84.0188 121.973 74.949C123.846 70.3611 125.262 65.0609 124.956 58.6404C124.377 46.4777 119.426 38.2307 112.893 31.9417C109.661 28.8299 105.769 26.183 101.182 24.2698C96.7311 22.4135 90.9373 21.0372 84.7322 21.3325C81.6816 21.4777 78.8039 21.8572 76.178 22.56Z" fill="#C6C6C6"/>
<path d="M82.0999 48.6449C83.4897 49.5647 84.9112 50.453 86.2233 51.4507C83.2593 53.3107 80.3536 55.2292 77.4065 57.106C77.854 57.448 78.3628 57.7285 78.8101 58.0704C81.7818 56.1889 84.7544 54.3084 87.7148 52.4151C89.0425 53.2364 90.3496 54.0782 91.575 55.0018C88.6086 56.8743 85.7417 58.8458 82.802 60.7446C83.2376 61.0987 83.7715 61.3541 84.2493 61.6654C87.2877 59.8067 90.2505 57.8723 93.2415 55.9664V49.7409H99.8213V62.1478C101.678 62.2499 103.725 62.1623 105.656 62.1913V68.0222H93.2415V62.1036C89.5942 64.3182 85.8565 66.8227 82.1877 69.1619C78.367 66.6824 74.6847 64.0638 70.8706 61.5777C69.7657 65.0779 67.1414 67.7111 62.7993 68.0222C60.0912 68.2158 57.014 67.8776 53.8948 68.0222V49.7409C57.7944 49.9991 62.0764 49.2197 65.168 50.1792C67.9016 51.0278 69.8396 53.2077 70.7388 55.9223C74.5557 53.5264 78.3114 51.0696 82.0999 48.6449ZM60.1673 55.6155V62.1915C61.7346 62.1992 62.9267 62.2901 63.8518 61.5779C65.2281 60.5184 65.5054 57.8918 64.2904 56.4922C63.4796 55.5584 62.1106 55.3624 60.2109 55.484C60.1603 55.4913 60.1635 55.5533 60.1673 55.6155ZM107.366 49.7409H113.946V62.1915H119.736V68.0224H107.322V49.8725C107.318 49.8103 107.315 49.7483 107.366 49.7409Z" fill="#C6C6C6"/>
</svg>
